<?xml version="1.0" encoding="UTF-8"?>
<svg version="1.1" xmlns="http://www.w3.org/2000/svg" width="500" height="500">
<path d="M0 0 C165 0 330 0 500 0 C500 165 500 330 500 500 C335 500 170 500 0 500 C0 335 0 170 0 0 Z " fill="#FEFEFE" transform="translate(0,0)"/>
<path d="M0 0 C1.72265625 1.48046875 1.72265625 1.48046875 2.72265625 3.48046875 C1.40201172 3.55394531 1.40201172 3.55394531 0.0546875 3.62890625 C-1.68748047 3.74105469 -1.68748047 3.74105469 -3.46484375 3.85546875 C-4.61339844 3.92507812 -5.76195312 3.9946875 -6.9453125 4.06640625 C-10.07693492 4.45556449 -12.43020184 5.16145385 -15.27734375 6.48046875 C-5.88611237 11.77808645 3.13730194 11.751502 13.72265625 11.48046875 C12.39444765 15.76430637 10.89743109 17.45882135 7.09765625 19.79296875 C6.28039062 20.30472656 5.463125 20.81648438 4.62109375 21.34375 C3.68136719 21.90642578 3.68136719 21.90642578 2.72265625 22.48046875 C5.38745897 23.7553346 8.05437341 25.02542341 10.72265625 26.29296875 C11.46644531 26.64939453 12.21023438 27.00582031 12.9765625 27.37304688 C17.81802301 29.66747816 22.68167396 31.66456945 27.72265625 33.48046875 C27.72265625 34.14046875 27.72265625 34.80046875 27.72265625 35.48046875 C26.11328125 36.734375 26.11328125 36.734375 23.97265625 38.04296875 C23.2765625 38.47738281 22.58046875 38.91179687 21.86328125 39.359375 C19.8026788 40.43855913 17.99400703 41.02517546 15.72265625 41.48046875 C15.64917969 43.06021484 15.64917969 43.06021484 15.57421875 44.671875 C15.08475818 54.36726365 14.16229611 63.87821062 12.72265625 73.48046875 C13.50253906 73.76148438 14.28242188 74.0425 15.0859375 74.33203125 C19.52615466 76.2659925 21.89952866 80.10963722 23.72265625 84.48046875 C24.68644262 91.49074648 24.19894956 97.43862521 20.33984375 103.4453125 C15.85158832 109.09357598 10.70090936 113.38699282 3.72265625 115.48046875 C1.84800879 115.53576809 -0.02711336 115.57593756 -1.90234375 115.60546875 C-8.03401373 115.96302271 -11.32722936 118.27970251 -16.16333008 121.88891602 C-29.91197545 131.95306089 -44.59870985 133.05952952 -61.27734375 131.48046875 C-71.23473119 129.8768053 -82.11654445 123.64126805 -89.27734375 116.48046875 C-91.60293545 116.16651387 -93.93902399 115.92847163 -96.27734375 115.73046875 C-104.43240163 114.81135562 -110.81639225 112.63644739 -116.18359375 106.19140625 C-121.51025296 98.4778007 -122.03683183 91.77617502 -121.27734375 82.48046875 C-119.01352865 77.43041968 -115.90235991 75.21343284 -111.27734375 72.48046875 C-111.44234375 71.22234375 -111.60734375 69.96421875 -111.77734375 68.66796875 C-112.32262088 63.26972516 -112.39012314 57.90081784 -112.40234375 52.48046875 C-112.40685547 51.63121826 -112.41136719 50.78196777 -112.41601562 49.90698242 C-112.41408203 49.10623291 -112.41214844 48.3054834 -112.41015625 47.48046875 C-112.40902832 46.75859375 -112.40790039 46.03671875 -112.40673828 45.29296875 C-112.27734375 43.48046875 -112.27734375 43.48046875 -111.27734375 41.48046875 C-113.91734375 42.14046875 -116.55734375 42.80046875 -119.27734375 43.48046875 C-116.79601359 34.0775334 -112.21218138 27.14820991 -104.27734375 21.48046875 C-100.53178154 19.45672272 -97.6192122 18.48046875 -93.27734375 18.48046875 C-93.23609375 17.18109375 -93.19484375 15.88171875 -93.15234375 14.54296875 C-92.3452085 7.41327405 -88.28114735 2.12007802 -83.15234375 -2.70703125 C-58.85452293 -21.84754655 -23.71202015 -17.29908649 0 0 Z " fill="#F2AD8F" transform="translate(297.27734375,152.51953125)"/>
<path d="M0 0 C1.72265625 1.48046875 1.72265625 1.48046875 2.72265625 3.48046875 C1.40201172 3.55394531 1.40201172 3.55394531 0.0546875 3.62890625 C-1.68748047 3.74105469 -1.68748047 3.74105469 -3.46484375 3.85546875 C-4.61339844 3.92507812 -5.76195312 3.9946875 -6.9453125 4.06640625 C-10.07693492 4.45556449 -12.43020184 5.16145385 -15.27734375 6.48046875 C-5.88611237 11.77808645 3.13730194 11.751502 13.72265625 11.48046875 C12.39444765 15.76430637 10.89743109 17.45882135 7.09765625 19.79296875 C6.28039062 20.30472656 5.463125 20.81648438 4.62109375 21.34375 C3.68136719 21.90642578 3.68136719 21.90642578 2.72265625 22.48046875 C5.38745897 23.7553346 8.05437341 25.02542341 10.72265625 26.29296875 C11.46644531 26.64939453 12.21023438 27.00582031 12.9765625 27.37304688 C17.81802301 29.66747816 22.68167396 31.66456945 27.72265625 33.48046875 C27.72265625 34.14046875 27.72265625 34.80046875 27.72265625 35.48046875 C26.11328125 36.734375 26.11328125 36.734375 23.97265625 38.04296875 C23.2765625 38.47738281 22.58046875 38.91179687 21.86328125 39.359375 C19.8026788 40.43855913 17.99400703 41.02517546 15.72265625 41.48046875 C15.68527344 42.52203125 15.64789063 43.56359375 15.609375 44.63671875 C14.19461058 77.59879159 14.19461058 77.59879159 3.72265625 87.48046875 C3.7383667 86.87686523 3.75407715 86.27326172 3.77026367 85.65136719 C4.10921354 70.64604235 3.51580536 58.13573295 -3.27734375 44.48046875 C-4.34726562 44.46628906 -5.4171875 44.45210937 -6.51953125 44.4375 C-27.7191046 43.88036199 -50.2810626 40.31985989 -69.27734375 30.48046875 C-68.15274704 32.25155823 -67.02765172 34.02233111 -65.90234375 35.79296875 C-65.27585938 36.77910156 -64.649375 37.76523438 -64.00390625 38.78125 C-62.78082762 40.69334804 -61.53640815 42.59187215 -60.27734375 44.48046875 C-63.27759322 44.53490876 -66.27683414 44.57435235 -69.27734375 44.60546875 C-70.11652344 44.62222656 -70.95570313 44.63898438 -71.8203125 44.65625 C-77.35226354 44.69913334 -81.95297788 43.96298449 -87.27734375 42.48046875 C-90.97129515 42.05551983 -90.97129515 42.05551983 -94.27734375 43.48046875 C-104.13754259 54.54058596 -101.51436197 72.82092648 -101.27734375 86.48046875 C-104.59510431 83.51566144 -106.24930275 80.84707407 -107.90234375 76.73046875 C-108.30710938 75.745625 -108.711875 74.76078125 -109.12890625 73.74609375 C-111.68924535 66.46567371 -112.57795018 60.27289416 -112.46484375 52.60546875 C-112.46419922 51.75210938 -112.46355469 50.89875 -112.46289062 50.01953125 C-112.41833868 43.76245862 -112.41833868 43.76245862 -111.27734375 41.48046875 C-113.91734375 42.14046875 -116.55734375 42.80046875 -119.27734375 43.48046875 C-116.79601359 34.0775334 -112.21218138 27.14820991 -104.27734375 21.48046875 C-100.53178154 19.45672272 -97.6192122 18.48046875 -93.27734375 18.48046875 C-93.23609375 17.18109375 -93.19484375 15.88171875 -93.15234375 14.54296875 C-92.3452085 7.41327405 -88.28114735 2.12007802 -83.15234375 -2.70703125 C-58.85452293 -21.84754655 -23.71202015 -17.29908649 0 0 Z " fill="#461A16" transform="translate(297.27734375,152.51953125)"/>
<path d="M0 0 C15.18 0 30.36 0 46 0 C43.71758932 7.98843737 40.58752468 13.17554135 33.375 17.5 C27.79475173 19.90080449 21.92873728 19.94433779 16 19 C9.08664864 16.21429885 3.98121422 12.16054986 0.75 5.375 C0 3 0 3 0 0 Z " fill="#4E201B" transform="translate(226,254)"/>
<path d="M0 0 C0.68513672 -0.00322266 1.37027344 -0.00644531 2.07617188 -0.00976562 C7.17022414 0.04522414 7.17022414 0.04522414 9.4375 2.3125 C9.61238254 4.74994897 9.66927405 7.0718608 9.6328125 9.5078125 C9.6299826 10.21525604 9.62715271 10.92269958 9.62423706 11.65158081 C9.61303137 13.9137251 9.58792679 16.17547515 9.5625 18.4375 C9.55247067 19.97004637 9.54334474 21.50259894 9.53515625 23.03515625 C9.51309086 26.79442301 9.47855896 30.55339464 9.4375 34.3125 C7.1275 34.3125 4.8175 34.3125 2.4375 34.3125 C2.4375 30.6825 2.4375 27.0525 2.4375 23.3125 C0.7875 23.3125 -0.8625 23.3125 -2.5625 23.3125 C-2.5625 26.9425 -2.5625 30.5725 -2.5625 34.3125 C-5.2025 34.3125 -7.8425 34.3125 -10.5625 34.3125 C-10.63668046 29.95259127 -10.69111544 25.59301721 -10.72729492 21.23266602 C-10.74237768 19.74952801 -10.76284689 18.26643456 -10.78881836 16.78344727 C-10.82522616 14.65109255 -10.84223073 12.51932765 -10.85546875 10.38671875 C-10.8711792 9.10369873 -10.88688965 7.82067871 -10.90307617 6.4987793 C-10.5625 3.3125 -10.5625 3.3125 -9.26318359 1.39306641 C-6.40439053 -0.42333011 -3.27247302 -0.07740002 0 0 Z " fill="#0C0C0C" transform="translate(184.5625,298.6875)"/>
<path d="M0 0 C0.68513672 -0.01160156 1.37027344 -0.02320313 2.07617188 -0.03515625 C4.06640625 -0.0234375 4.06640625 -0.0234375 7.4375 0.375 C9.92110441 4.10040662 9.6690867 6.00562973 9.6328125 10.44921875 C9.6299826 11.1330513 9.62715271 11.81688385 9.62423706 12.5214386 C9.61305684 14.70197165 9.58795691 16.88209145 9.5625 19.0625 C9.55246738 20.54231177 9.54334202 22.02212999 9.53515625 23.50195312 C9.51312481 27.126436 9.47861002 30.75067766 9.4375 34.375 C7.1275 34.375 4.8175 34.375 2.4375 34.375 C2.4375 30.745 2.4375 27.115 2.4375 23.375 C0.7875 23.375 -0.8625 23.375 -2.5625 23.375 C-2.5625 27.005 -2.5625 30.635 -2.5625 34.375 C-5.2025 34.375 -7.8425 34.375 -10.5625 34.375 C-10.63668046 30.01509127 -10.69111544 25.65551721 -10.72729492 21.29516602 C-10.74237768 19.81202801 -10.76284689 18.32893456 -10.78881836 16.84594727 C-10.82522616 14.71359255 -10.84223073 12.58182765 -10.85546875 10.44921875 C-10.8711792 9.16619873 -10.88688965 7.88317871 -10.90307617 6.5612793 C-10.5625 3.375 -10.5625 3.375 -9.26318359 1.45776367 C-6.40347552 -0.36290892 -3.27716007 -0.05580783 0 0 Z " fill="#060606" transform="translate(313.5625,298.625)"/>
<path d="M0 0 C15 0 15 0 19 3 C19.390625 5.55859375 19.390625 5.55859375 19.25 8.4375 C19.21390625 9.38496094 19.1778125 10.33242188 19.140625 11.30859375 C19.07101562 12.64083984 19.07101562 12.64083984 19 14 C19 15.32 19 16.64 19 18 C19 23.33333333 19 28.66666667 19 34 C16.36 34 13.72 34 11 34 C11 29.38 11 24.76 11 20 C9.68 20 8.36 20 7 20 C7 24.62 7 29.24 7 34 C4.69 34 2.38 34 0 34 C0 22.78 0 11.56 0 0 Z " fill="#050505" transform="translate(279,299)"/>
<path d="M0 0 C2.31 0 4.62 0 7 0 C7 9.57 7 19.14 7 29 C8.65 29 10.3 29 12 29 C12 19.43 12 9.86 12 0 C14.64 0 17.28 0 20 0 C20.07430494 4.19918185 20.12867413 8.39801274 20.16479492 12.59765625 C20.17985681 14.02545846 20.20031062 15.4532146 20.22631836 16.88085938 C20.26281842 18.93631373 20.27975166 20.99115505 20.29296875 23.046875 C20.3086792 24.28276367 20.32438965 25.51865234 20.34057617 26.79199219 C19.97491901 30.23624671 19.4942819 31.63330563 17 34 C13.75 34.53125 13.75 34.53125 10 34.5 C8.14375 34.51546875 8.14375 34.51546875 6.25 34.53125 C3 34 3 34 1.31518555 32.40136719 C-0.46356852 29.15358084 -0.33990089 26.73886963 -0.29296875 23.046875 C-0.28872391 22.38665344 -0.28447906 21.72643188 -0.28010559 21.04620361 C-0.26337435 18.94704609 -0.22573551 16.84886504 -0.1875 14.75 C-0.17244584 13.32293058 -0.15875871 11.89584604 -0.14648438 10.46875 C-0.11349001 6.97885183 -0.06174743 3.4895213 0 0 Z " fill="#0C0C0C" transform="translate(254,299)"/>
<path d="M0 0 C2.31 0 4.62 0 7 0 C7 4.62 7 9.24 7 14 C8.98 14 10.96 14 13 14 C13 9.38 13 4.76 13 0 C15.31 0 17.62 0 20 0 C20 11.22 20 22.44 20 34 C17.69 34 15.38 34 13 34 C13 29.71 13 25.42 13 21 C11.02 21 9.04 21 7 21 C7 25.29 7 29.58 7 34 C4.69 34 2.38 34 0 34 C0 22.78 0 11.56 0 0 Z " fill="#020202" transform="translate(329,299)"/>
<path d="M0 0 C2.31 0 4.62 0 7 0 C7 4.62 7 9.24 7 14 C10.16277272 12.41861364 10.43093689 9.67403949 11.625 6.4375 C12.07101563 5.23996094 12.51703125 4.04242188 12.9765625 2.80859375 C13.31429687 1.88175781 13.65203125 0.95492188 14 0 C16.31 0 18.62 0 21 0 C20.566875 1.17755859 20.566875 1.17755859 20.125 2.37890625 C16.34773755 13.06803437 16.55593456 18.70585314 20.90625 29.20703125 C22 32 22 32 22 34 C19.36 34 16.72 34 14 34 C13.32942113 32.2097939 12.6636531 30.41778511 12 28.625 C11.62875 27.62726563 11.2575 26.62953125 10.875 25.6015625 C10 23 10 23 10 21 C9.01 21 8.02 21 7 21 C7 25.29 7 29.58 7 34 C4.69 34 2.38 34 0 34 C0 22.78 0 11.56 0 0 Z " fill="#050505" transform="translate(200,299)"/>
<path d="M0 0 C5.28 0 10.56 0 16 0 C20 4 20 4 20.53125 6.83984375 C20.48509986 11.41447634 20.42968669 15.02853444 18.5625 19.25 C14.66647899 21.91069728 11.6525047 21.34209593 7 21 C7 25.29 7 29.58 7 34 C4.69 34 2.38 34 0 34 C0 22.78 0 11.56 0 0 Z " fill="#070707" transform="translate(151,299)"/>
<path d="M0 0 C5.01606905 2.80975297 6.85559878 5.63899695 9 11 C9 14.63 9 18.26 9 22 C1.08 22 -6.84 22 -15 22 C-16.0874189 16.56290548 -16.76238363 11.51899457 -16 6 C-11.58674766 0.19308903 -7.06340649 -1.22340047 0 0 Z " fill="#EED9CB" transform="translate(227,220)"/>
<path d="M0 0 C2.91927604 1.3961755 4.72202996 2.72202996 7 5 C7.17170903 7.72697223 7.2324568 10.33906468 7.1875 13.0625 C7.18685547 13.80822266 7.18621094 14.55394531 7.18554688 15.32226562 C7.14028159 20.85971841 7.14028159 20.85971841 6 22 C4.29227642 22.08713831 2.58101351 22.10700007 0.87109375 22.09765625 C-0.68061523 22.09282227 -0.68061523 22.09282227 -2.26367188 22.08789062 C-3.35228516 22.07951172 -4.44089844 22.07113281 -5.5625 22.0625 C-7.2012207 22.05573242 -7.2012207 22.05573242 -8.87304688 22.04882812 C-11.58208495 22.03699826 -14.29101599 22.02051543 -17 22 C-17.62289264 10.33806566 -17.62289264 10.33806566 -15.3125 5.375 C-10.60668558 0.54200141 -6.6619754 -1.02491929 0 0 Z " fill="#EEDACC" transform="translate(278,220)"/>
<path d="M0 0 C2.64 0 5.28 0 8 0 C8 9.24 8 18.48 8 28 C10.64 28 13.28 28 16 28 C16 29.98 16 31.96 16 34 C10.72 34 5.44 34 0 34 C0 22.78 0 11.56 0 0 Z " fill="#111111" transform="translate(235,299)"/>
<path d="M0 0 C3.35694984 2.48122379 4.78441871 3.94365169 5.625 8.0625 C5 11 5 11 2.875 13.375 C-0.48281953 15.27289799 -2.20278931 15.56554202 -6 15 C-8.375 14 -8.375 14 -10 12 C-10.5659239 7.54334931 -10.82483134 5.26897129 -8.375 1.5 C-5.23686002 -0.48198314 -3.65126535 -0.67064058 0 0 Z " fill="#D1846E" transform="translate(275,225)"/>
<path d="M0 0 C3.84447528 0.70612811 5.4893383 1.61093216 8.0625 4.5625 C8.69984462 8.52819988 8.68249672 10.59530512 6.5 14 C3.12032196 16.16646028 1.00266013 16.12538002 -2.9375 15.5625 C-5.375 13.9375 -5.375 13.9375 -6.9375 11.5625 C-7.58600195 7.75255105 -7.21821139 6.05914323 -5.3125 2.6875 C-2.9375 0.5625 -2.9375 0.5625 0 0 Z " fill="#CB7E68" transform="translate(223.9375,224.4375)"/>
<path d="M0 0 C1.1859375 0.00257813 2.371875 0.00515625 3.59375 0.0078125 C4.7796875 0.00523437 5.965625 0.00265625 7.1875 0 C10.09375 0.1328125 10.09375 0.1328125 11.09375 1.1328125 C11.16694621 3.82936104 11.18617537 6.49972708 11.15625 9.1953125 C11.15173828 9.95392578 11.14722656 10.71253906 11.14257812 11.49414062 C11.1307568 13.37373121 11.11282078 15.25328149 11.09375 17.1328125 C10.10375 17.1328125 9.11375 17.1328125 8.09375 17.1328125 C8.09375 12.1828125 8.09375 7.2328125 8.09375 2.1328125 C7.10375 2.1328125 6.11375 2.1328125 5.09375 2.1328125 C5.09375 7.0828125 5.09375 12.0328125 5.09375 17.1328125 C4.10375 17.1328125 3.11375 17.1328125 2.09375 17.1328125 C2.09375 12.1828125 2.09375 7.2328125 2.09375 2.1328125 C1.10375 2.1328125 0.11375 2.1328125 -0.90625 2.1328125 C-0.90625 7.0828125 -0.90625 12.0328125 -0.90625 17.1328125 C-1.89625 17.1328125 -2.88625 17.1328125 -3.90625 17.1328125 C-3.93309679 14.48691236 -3.95301357 11.84128154 -3.96875 9.1953125 C-3.97712891 8.44056641 -3.98550781 7.68582031 -3.99414062 6.90820312 C-4.00277441 4.98286937 -3.95849333 3.05745669 -3.90625 1.1328125 C-2.90625 0.1328125 -2.90625 0.1328125 0 0 Z " fill="#010101" transform="translate(204.90625,354.8671875)"/>
<path d="M0 0 C6.93359375 -0.09765625 6.93359375 -0.09765625 9 0 C10 1 10 1 10.09765625 4.59765625 C10.0909822 6.08596867 10.07902183 7.57426432 10.0625 9.0625 C10.05798828 9.82111328 10.05347656 10.57972656 10.04882812 11.36132812 C10.0370068 13.24091871 10.01907078 15.12046899 10 17 C8.68 17 7.36 17 6 17 C6 14.69 6 12.38 6 10 C5.34 10 4.68 10 4 10 C4 12.31 4 14.62 4 17 C2.68 17 1.36 17 0 17 C0 11.39 0 5.78 0 0 Z " fill="#2B2B2B" transform="translate(280,355)"/>
<path d="M0 0 C0.721875 0.00257813 1.44375 0.00515625 2.1875 0.0078125 C2.909375 0.00523437 3.63125 0.00265625 4.375 0 C6.1875 0.1328125 6.1875 0.1328125 7.1875 1.1328125 C7.26069621 3.82936104 7.27992537 6.49972708 7.25 9.1953125 C7.24548828 9.95392578 7.24097656 10.71253906 7.23632812 11.49414062 C7.2245068 13.37373121 7.20657078 15.25328149 7.1875 17.1328125 C5.8675 17.1328125 4.5475 17.1328125 3.1875 17.1328125 C3.1875 15.1528125 3.1875 13.1728125 3.1875 11.1328125 C2.1975 11.1328125 1.2075 11.1328125 0.1875 11.1328125 C0.1875 13.1128125 0.1875 15.0928125 0.1875 17.1328125 C-0.8025 17.1328125 -1.7925 17.1328125 -2.8125 17.1328125 C-2.83934679 14.48691236 -2.85926357 11.84128154 -2.875 9.1953125 C-2.88337891 8.44056641 -2.89175781 7.68582031 -2.90039062 6.90820312 C-2.90902441 4.98286937 -2.86474333 3.05745669 -2.8125 1.1328125 C-1.8125 0.1328125 -1.8125 0.1328125 0 0 Z " fill="#0E0E0E" transform="translate(267.8125,354.8671875)"/>
<path d="M0 0 C2.2651631 2.11415222 2.89431221 3.47156104 3.5 6.5 C3 9 3 9 0.8125 11.3125 C-2.25509255 13.15305553 -3.51852936 13.8034163 -7 13 C-9.375 10.875 -9.375 10.875 -11 8 C-11 4.45665039 -10.64741834 2.74333217 -8.3125 0.0625 C-5.10056066 -1.41325591 -3.33525198 -1.06444212 0 0 Z " fill="#CF755D" transform="translate(219,245)"/>
<path d="M0 0 C3.375 0.9375 3.375 0.9375 5.375 3.9375 C5.84149698 7.59172636 5.84496298 9.27607062 3.6875 12.3125 C1.375 13.9375 1.375 13.9375 -1.125 14.4375 C-4.49513879 13.76347224 -5.64177007 12.7287125 -7.625 9.9375 C-8.23475382 6.27897708 -8.07043026 4.63237121 -6.0625 1.5 C-3.625 -0.0625 -3.625 -0.0625 0 0 Z " fill="#CE745C" transform="translate(282.625,244.0625)"/>
<path d="M0 0 C10.23 0 20.46 0 31 0 C27.77074734 4.30567022 26.98295801 4.80529079 22 6 C14.22066356 6.85735146 7.71428249 6.9324543 1.2578125 2.19140625 C0.84273437 1.79824219 0.42765625 1.40507812 0 1 C0 0.67 0 0.34 0 0 Z " fill="#ECDBCE" transform="translate(233,256)"/>
<path d="M0 0 C3.5 0.125 3.5 0.125 4.5 1.125 C4.57319621 3.82154854 4.59242537 6.49191458 4.5625 9.1875 C4.55798828 9.94611328 4.55347656 10.70472656 4.54882812 11.48632812 C4.5370068 13.36591871 4.51907078 15.24546899 4.5 17.125 C3.51 17.125 2.52 17.125 1.5 17.125 C1.5 12.175 1.5 7.225 1.5 2.125 C0.51 2.62 0.51 2.62 -0.5 3.125 C-0.97001033 6.40055608 -0.97001033 6.40055608 -1.125 10.1875 C-1.19976562 11.47785156 -1.27453125 12.76820313 -1.3515625 14.09765625 C-1.40054688 15.09667969 -1.44953125 16.09570312 -1.5 17.125 C-2.49 17.125 -3.48 17.125 -4.5 17.125 C-4.52684679 14.47909986 -4.54676357 11.83346904 -4.5625 9.1875 C-4.57087891 8.43275391 -4.57925781 7.67800781 -4.58789062 6.90039062 C-4.59652441 4.97505687 -4.55224333 3.04964419 -4.5 1.125 C-3.5 0.125 -3.5 0.125 0 0 Z " fill="#010101" transform="translate(239.5,354.875)"/>
<path d="M0 0 C1.6328125 0.8203125 1.6328125 0.8203125 3.8203125 2.3203125 C3.8203125 3.6403125 3.8203125 4.9603125 3.8203125 6.3203125 C2.7065625 5.8253125 2.7065625 5.8253125 1.5703125 5.3203125 C-3.64284962 3.93013593 -8.81114243 3.79352886 -14.1796875 4.3203125 C-15.1696875 4.9803125 -16.1596875 5.6403125 -17.1796875 6.3203125 C-19.3671875 5.9453125 -19.3671875 5.9453125 -21.1796875 5.3203125 C-20.1796875 2.3203125 -20.1796875 2.3203125 -18.01953125 0.65625 C-12.65674283 -1.8665473 -5.64839969 -1.76132894 0 0 Z " fill="#55251F" transform="translate(231.1796875,202.6796875)"/>
<path d="M0 0 C0.66 0 1.32 0 2 0 C2.25394531 0.74765625 2.50789062 1.4953125 2.76953125 2.265625 C3.11371094 3.25046875 3.45789063 4.2353125 3.8125 5.25 C4.14894531 6.22453125 4.48539063 7.1990625 4.83203125 8.203125 C5.94378127 10.86537588 7.25110146 12.73495089 9 15 C9 15.66 9 16.32 9 17 C4.44381905 16.82132624 2.48090473 16.43997667 -0.9375 13.3125 C-3.1897634 9.69522849 -3.72342499 8.15969367 -3 4 C-1.625 1.625 -1.625 1.625 0 0 Z " fill="#CF765E" transform="translate(191,243)"/>
<path d="M0 0 C2.3125 1.75 2.3125 1.75 3.1875 3.9375 C3.22875 4.535625 3.27 5.13375 3.3125 5.75 C-1.4375 4.875 -1.4375 4.875 -3.6875 3.75 C-5.66387414 3.62772074 -7.6448831 3.57450071 -9.625 3.5625 C-10.68589844 3.54832031 -11.74679687 3.53414062 -12.83984375 3.51953125 C-15.89027669 3.53434933 -15.89027669 3.53434933 -18.6875 5.75 C-19.6775 5.75 -20.6675 5.75 -21.6875 5.75 C-21.6875 4.43 -21.6875 3.11 -21.6875 1.75 C-15.14710316 -2.61026456 -7.30535974 -2.47639313 0 0 Z " fill="#52231D" transform="translate(282.6875,203.25)"/>
<path d="M0 0 C0.66 0 1.32 0 2 0 C4.45899354 3.68849031 4.80114533 6.71887962 4 11 C1.9375 13.9375 1.9375 13.9375 -1 16 C-3.32340304 16.39667857 -5.65759616 16.73789356 -8 17 C-7.50628906 16.02417969 -7.01257813 15.04835938 -6.50390625 14.04296875 C-5.85666469 12.75786595 -5.20953512 11.47270675 -4.5625 10.1875 C-4.23701172 9.54490234 -3.91152344 8.90230469 -3.57617188 8.24023438 C-2.20767324 5.51734534 -0.96516735 2.89550206 0 0 Z " fill="#CF755D" transform="translate(304,243)"/>
<path d="M0 0 C3.5625 0.1875 3.5625 0.1875 5.5625 2.1875 C5.5625 3.1775 5.5625 4.1675 5.5625 5.1875 C4.2425 5.1875 2.9225 5.1875 1.5625 5.1875 C1.5625 4.1975 1.5625 3.2075 1.5625 2.1875 C0.5725 2.1875 -0.4175 2.1875 -1.4375 2.1875 C-1.4375 6.4775 -1.4375 10.7675 -1.4375 15.1875 C-0.4475 15.1875 0.5425 15.1875 1.5625 15.1875 C1.5625 14.1975 1.5625 13.2075 1.5625 12.1875 C2.5525 12.1875 3.5425 12.1875 4.5625 12.1875 C4.5625 13.8375 4.5625 15.4875 4.5625 17.1875 C-1.58984375 17.28515625 -1.58984375 17.28515625 -3.4375 17.1875 C-5.19309942 15.43190058 -4.56971919 13.15167558 -4.57421875 10.81640625 C-4.57035156 10.11386719 -4.56648437 9.41132813 -4.5625 8.6875 C-4.56636719 7.98496094 -4.57023438 7.28242188 -4.57421875 6.55859375 C-4.56206123 0.2488397 -4.56206123 0.2488397 0 0 Z " fill="#090909" transform="translate(254.4375,354.8125)"/>
<path d="M0 0 C2.64 0 5.28 0 8 0 C8 0.99 8 1.98 8 3 C6.35 3 4.7 3 3 3 C3 4.32 3 5.64 3 7 C4.32 7 5.64 7 7 7 C7 7.99 7 8.98 7 10 C5.68 10 4.36 10 3 10 C3 11.32 3 12.64 3 14 C4.32 14 5.64 14 7 14 C7 14.99 7 15.98 7 17 C4.69 17 2.38 17 0 17 C0 11.39 0 5.78 0 0 Z " fill="#080808" transform="translate(222,355)"/>
<path d="M0 0 C0 0.66 0 1.32 0 2 C-7.06627849 4.8265114 -12.93372151 4.8265114 -20 2 C-20 1.34 -20 0.68 -20 0 C-12.81221969 -2.80498744 -7.14874771 -2.33428497 0 0 Z " fill="#C46C55" transform="translate(259,268)"/>
<path d="M0 0 C15.18 0 30.36 0 46 0 C45.67 0.66 45.34 1.32 45 2 C44.21625 1.979375 43.4325 1.95875 42.625 1.9375 C40.01885039 1.81315937 40.01885039 1.81315937 38 3 C35.66015464 3.02851438 33.31933516 2.98750131 30.98046875 2.9140625 C30.28488358 2.89282318 29.5892984 2.87158386 28.87263489 2.84970093 C27.39897502 2.80341335 25.92539617 2.75448296 24.4519043 2.703125 C22.2070339 2.62567395 19.96202688 2.55828897 17.71679688 2.4921875 C16.28383449 2.44591798 14.8508909 2.39906177 13.41796875 2.3515625 C12.11625732 2.30854004 10.8145459 2.26551758 9.47338867 2.22119141 C6.53948721 2.03435548 3.85538075 1.6702836 1 1 C0.67 1.66 0.34 2.32 0 3 C0 2.01 0 1.02 0 0 Z " fill="#82584D" transform="translate(226,254)"/>
<path d="M0 0 C1.65 0.33 3.3 0.66 5 1 C5 4.96 5 8.92 5 13 C3.02 13 1.04 13 -1 13 C-1.02686553 11.02090602 -1.04633375 9.04171029 -1.0625 7.0625 C-1.07410156 5.96035156 -1.08570313 4.85820312 -1.09765625 3.72265625 C-1 1 -1 1 0 0 Z " fill="#DBDBDB" transform="translate(311,303)"/>
<path d="M0 0 C1.65 0 3.3 0 5 0 C5 3.96 5 7.92 5 12 C3.35 12 1.7 12 0 12 C0 8.04 0 4.08 0 0 Z " fill="#FDFDFD" transform="translate(182,304)"/>
<path d="M0 0 C3.875 0.875 3.875 0.875 5 2 C5.04063832 3.66617115 5.042721 5.33388095 5 7 C4.34 7 3.68 7 3 7 C2.67 7.99 2.34 8.98 2 10 C0.35 9.67 -1.3 9.34 -3 9 C-3.33 7.68 -3.66 6.36 -4 5 C-3.01 4.67 -2.02 4.34 -1 4 C-0.26676204 1.98491642 -0.26676204 1.98491642 0 0 Z " fill="#4E1F1A" transform="translate(224,228)"/>
<path d="M0 0 C1.65 0 3.3 0 5 0 C5 3.63 5 7.26 5 11 C3.35 11 1.7 11 0 11 C0 7.37 0 3.74 0 0 Z " fill="#EBEBEB" transform="translate(158,304)"/>
<path d="M0 0 C3.875 0.875 3.875 0.875 5 2 C5.04063832 3.66617115 5.042721 5.33388095 5 7 C4.01 7 3.02 7 2 7 C2 7.66 2 8.32 2 9 C0.35 9 -1.3 9 -3 9 C-3.33 7.68 -3.66 6.36 -4 5 C-3.01 4.67 -2.02 4.34 -1 4 C-0.26676204 1.98491642 -0.26676204 1.98491642 0 0 Z " fill="#4B1C17" transform="translate(272,228)"/>
<path d="M0 0 C0.99 0 1.98 0 3 0 C3 5.61 3 11.22 3 17 C2.01 17 1.02 17 0 17 C0 11.39 0 5.78 0 0 Z " fill="#020202" transform="translate(296,355)"/>
<path d="M0 0 C1.65 0 3.3 0 5 0 C5 3.3 5 6.6 5 10 C3.35 10 1.7 10 0 10 C0 6.7 0 3.4 0 0 Z " fill="#F4F4F4" transform="translate(286,304)"/>
<path d="M0 0 C1.98 0.66 3.96 1.32 6 2 C5.01 2.33 4.02 2.66 3 3 C3.33 3.99 3.66 4.98 4 6 C5.65 6.33 7.3 6.66 9 7 C9.33 6.34 9.66 5.68 10 5 C10.5625 6.9375 10.5625 6.9375 11 9 C10 10 10 10 7.1875 10.25 C4 10 4 10 1.625 8.9375 C-0.78794727 6.06052441 -0.2734643 3.62340201 0 0 Z " fill="#BD6E59" transform="translate(265,230)"/>
<path d="M0 0 C2.70552388 2.19823815 4.44778333 3.89556667 6 7 C6.13415472 9.6723621 6.04318541 12.32250488 6 15 C5.67 15 5.34 15 5 15 C4.89042969 14.38511719 4.78085937 13.77023438 4.66796875 13.13671875 C4.50941406 12.32847656 4.35085938 11.52023438 4.1875 10.6875 C4.03667969 9.88699219 3.88585937 9.08648437 3.73046875 8.26171875 C2.90621167 5.70960726 2.09274359 4.64683212 0 3 C-3.14930893 1.95023036 -5.38814456 1.89868405 -8.6875 1.9375 C-9.68136719 1.94652344 -10.67523438 1.95554688 -11.69921875 1.96484375 C-12.45847656 1.97644531 -13.21773438 1.98804688 -14 2 C-9.99009882 -2.00990118 -5.14888493 -1.34593659 0 0 Z " fill="#78483E" transform="translate(281,219)"/>
<path d="M0 0 C2.4375 1.75 2.4375 1.75 4 4 C4 5.32 4 6.64 4 8 C3.34 8 2.68 8 2 8 C1.34 6.35 0.68 4.7 0 3 C-2.64 3 -5.28 3 -8 3 C-8.33 4.65 -8.66 6.3 -9 8 C-9.66 8 -10.32 8 -11 8 C-10.64987213 5.40905378 -10.26229035 3.4225789 -8.875 1.1875 C-5.84814901 -0.72950563 -3.4846244 -0.42793633 0 0 Z " fill="#D17960" transform="translate(252,238)"/>
<path d="M0 0 C2.74086056 -0.22223194 4.43963721 -0.34781139 6.8125 1.125 C8.49106106 3.77535957 8.20450238 5.93246424 8 9 C7.01 9.33 6.02 9.66 5 10 C4.731875 8.865625 4.46375 7.73125 4.1875 6.5625 C3.795625 5.386875 3.40375 4.21125 3 3 C2.01 2.67 1.02 2.34 0 2 C0 1.34 0 0.68 0 0 Z " fill="#C56F58" transform="translate(224,226)"/>
<path d="M0 0 C0.99 0 1.98 0 3 0 C3 2.31 3 4.62 3 7 C2.01 7 1.02 7 0 7 C0 4.69 0 2.38 0 0 Z " fill="#BFBFBF" transform="translate(268,357)"/>
<path d="M0 0 C2.475 0.495 2.475 0.495 5 1 C5 1.99 5 2.98 5 4 C3.35 4 1.7 4 0 4 C0 2.68 0 1.36 0 0 Z " fill="#E9D6C9" transform="translate(267,228)"/>
<path d="M0 0 C1.32 0 2.64 0 4 0 C4 1.32 4 2.64 4 4 C2.35 3.67 0.7 3.34 -1 3 C-0.67 2.01 -0.34 1.02 0 0 Z " fill="#ECDACD" transform="translate(220,228)"/>
<path d="M0 0 C0.928125 0.0825 1.85625 0.165 2.8125 0.25 C1.8225 0.58 0.8325 0.91 -0.1875 1.25 C-0.1875 1.91 -0.1875 2.57 -0.1875 3.25 C-2.1675 3.58 -4.1475 3.91 -6.1875 4.25 C-4.36434338 1.00883268 -3.82500054 0.30000004 0 0 Z " fill="#D38771" transform="translate(224.1875,224.75)"/>
</svg>
